<svg width="42" height="42" viewBox="0 0 42 42" fill="none" xmlns="http://www.w3.org/2000/svg">
<path d="M4.74173 8.9901L9.87924 4.25613C10.0606 4.08794 10.2736 3.95752 10.5057 3.87243C10.7378 3.78733 10.9845 3.74927 11.2315 3.76044C11.4784 3.77161 11.7207 3.83179 11.9442 3.93749C12.1677 4.0432 12.3681 4.19232 12.5336 4.37619L16.0785 8.30401C15.9072 8.52699 15.3764 9.04155 14.6914 9.89915L12.585 12.6606C12.5295 12.7285 12.4835 12.8035 12.448 12.8836C11.8632 13.9162 11.4989 15.0592 11.378 16.2402C11.2571 17.4212 11.3824 18.6145 11.7459 19.7444C12.5792 22.0264 13.9001 24.0986 15.6161 25.8163C17.196 27.6722 19.199 29.1195 21.4558 30.0357C22.5191 30.457 23.6676 30.6177 24.8055 30.5043C25.9435 30.3909 27.0379 30.0068 27.9975 29.3839L30.9088 27.48C31.8164 26.8797 32.3815 26.3823 32.6213 26.2279L36.1661 30.0871C36.3373 30.2666 36.4707 30.4787 36.5584 30.7107C36.6461 30.9428 36.6864 31.1902 36.6768 31.4382C36.6672 31.6862 36.6079 31.9297 36.5026 32.1543C36.3972 32.3789 36.2479 32.58 36.0634 32.7457L30.9259 37.4968C29.4703 38.8175 26.4734 38.9547 23.1683 37.9599C20.0469 37.0305 17.1931 35.3661 14.8455 33.1059L7.75573 25.4732C5.70434 22.9388 4.28387 19.9523 3.61148 16.76C2.90935 13.381 3.2861 10.3966 4.74173 8.9901ZM2.54973 6.69172C-0.258779 9.26453 -0.378653 13.5525 0.443348 17.4289C1.19356 21.2213 2.89029 24.7618 5.37535 27.7201L12.4137 35.4043C15.1315 38.126 18.4968 40.1094 22.1921 41.1673C26.0281 42.3337 30.2409 42.5567 33.0494 39.9667L38.1869 35.2327C39.1807 34.3107 39.7707 33.0328 39.8284 31.6772C39.8861 30.3216 39.4069 28.998 38.4951 27.9946L35.0188 24.1354C34.5744 23.5979 33.977 23.209 33.3063 23.0205C32.6432 22.8915 31.9561 22.9881 31.354 23.2949C30.5856 23.7451 29.8579 24.2616 29.1791 24.8386L26.285 26.7596C25.7545 27.1209 25.1392 27.3377 24.4997 27.3888C23.8602 27.4399 23.2184 27.3236 22.6374 27.0512C20.8656 26.2745 19.2955 25.1009 18.0479 23.6208C16.668 22.2298 15.5946 20.5645 14.8969 18.7325C14.6384 18.0271 14.5411 17.2726 14.6123 16.5246C14.6834 15.7765 14.9211 15.054 15.3079 14.4101L17.3457 11.8545C17.9723 11.2169 18.5451 10.5285 19.0582 9.79624C19.4112 9.22179 19.562 8.54548 19.4864 7.87521C19.3665 7.17298 19.0313 6.52555 18.5274 6.02279L14.914 2.24934C13.9934 1.25398 12.7175 0.663086 11.3641 0.605265C10.0106 0.547444 8.68913 1.02737 7.68723 1.9406L2.54973 6.69172Z" fill="#515151"/>
<path d="M5.08427 4.30749C4.80027 4.62266 4.64307 5.03213 4.64307 5.45668C4.64307 5.88123 4.80027 6.2907 5.08427 6.60587L12.174 14.3414C12.478 14.6379 12.881 14.8108 13.3049 14.8266C13.7289 14.8425 14.1436 14.7001 14.4688 14.4272C14.6254 14.2843 14.7523 14.1119 14.8422 13.9199C14.9321 13.7278 14.9833 13.5199 14.9929 13.308C15.0024 13.096 14.9701 12.8843 14.8978 12.6849C14.8255 12.4855 14.7146 12.3024 14.5715 12.146L7.39615 4.41041C7.25308 4.24844 7.07895 4.11696 6.8841 4.02379C6.68926 3.93061 6.4777 3.87765 6.262 3.86805C6.0463 3.85844 5.83087 3.8924 5.62855 3.9679C5.42622 4.04339 5.24112 4.15888 5.08427 4.30749Z" fill="#515151"/>
<path d="M26.371 27.4799C26.087 27.795 25.9298 28.2045 25.9298 28.629C25.9298 29.0536 26.087 29.4631 26.371 29.7782L33.4779 37.5138C33.7686 37.83 34.1727 38.0175 34.6015 38.0352C35.0302 38.0529 35.4484 37.8993 35.7641 37.6081C36.0798 37.317 36.267 36.9122 36.2847 36.4828C36.3023 36.0534 36.149 35.6345 35.8583 35.3183L28.6829 27.5828C28.5398 27.4208 28.3657 27.2893 28.1708 27.1962C27.976 27.103 27.7644 27.05 27.5487 27.0404C27.333 27.0308 27.1176 27.0648 26.9153 27.1403C26.713 27.2158 26.5279 27.3312 26.371 27.4799Z" fill="#515151"/>
<path d="M27.2248 7.27494C26.989 7.49328 26.8238 7.77724 26.7505 8.09033C26.6771 8.40343 26.6989 8.73134 26.8131 9.03193C26.9272 9.33252 27.1285 9.59205 27.3911 9.77716C27.6536 9.96227 27.9655 10.0645 28.2865 10.0707C29.2981 10.1197 30.2493 10.5673 30.9327 11.316C31.616 12.0647 31.976 13.0536 31.9342 14.0672C31.9263 14.2789 31.9601 14.4901 32.0338 14.6887C32.1074 14.8873 32.2193 15.0695 32.3633 15.2248C32.5072 15.3801 32.6802 15.5055 32.8725 15.5938C33.0648 15.6821 33.2726 15.7316 33.484 15.7395C33.6954 15.7474 33.9062 15.7135 34.1046 15.6397C34.3029 15.566 34.4847 15.4538 34.6398 15.3097C34.7948 15.1656 34.92 14.9922 35.0082 14.7996C35.0964 14.607 35.1458 14.3989 35.1537 14.1872C35.2121 13.2407 35.0783 12.2922 34.7604 11.3989C34.4426 10.5057 33.9471 9.68623 33.3042 8.99015C32.0332 7.61858 30.2731 6.80493 28.4064 6.72607C27.9557 6.74601 27.5311 6.94324 27.2248 7.27494Z" fill="#515151"/>
<path d="M27.3981 0.534099C27.191 0.763659 27.0543 1.04804 27.0041 1.35332C26.954 1.65859 26.9926 1.97186 27.1154 2.25575C27.2382 2.53964 27.4399 2.78216 27.6965 2.95437C27.9531 3.12658 28.2538 3.22121 28.5626 3.22697C29.9566 3.28428 31.3255 3.61663 32.591 4.20496C33.8564 4.79329 34.9935 5.62603 35.9369 6.65543C36.8804 7.68482 37.6117 8.89062 38.0889 10.2037C38.566 11.5167 38.7798 12.9112 38.7177 14.3072C38.6938 14.7511 38.8429 15.1871 39.1336 15.523C39.4243 15.859 39.834 16.0688 40.2761 16.1082C40.7303 16.1082 41.1659 15.9275 41.487 15.6058C41.8082 15.2841 41.9886 14.8479 41.9886 14.393C42.0642 12.5716 41.7795 10.7532 41.1507 9.04245C40.5219 7.33172 39.5615 5.76244 38.3248 4.42493C37.0881 3.08743 35.5995 2.00811 33.9446 1.24911C32.2898 0.490105 30.5014 0.0664006 28.6825 0.002385C28.4423 -0.0107117 28.2023 0.0302517 27.98 0.122265C27.7578 0.214279 27.5589 0.355004 27.3981 0.534099Z" fill="#515151"/>
<path d="M24.3983 15.0277C24.242 15.1719 24.1156 15.3454 24.0263 15.5385C23.9369 15.7316 23.8865 15.9404 23.8777 16.1531C23.869 16.3657 23.9021 16.578 23.9753 16.7778C24.0484 16.9776 24.1602 17.161 24.3041 17.3175C24.448 17.474 24.6213 17.6007 24.8141 17.6901C25.0069 17.7796 25.2154 17.8301 25.4277 17.8389C25.64 17.8477 25.8519 17.8145 26.0514 17.7412C26.2509 17.6679 26.434 17.556 26.5903 17.4118L27.8747 16.2283C28.1903 15.9372 28.3776 15.5324 28.3953 15.103C28.4129 14.6736 28.2595 14.2547 27.9689 13.9385C27.6782 13.6224 27.274 13.4348 26.8453 13.4171C26.4165 13.3995 25.9983 13.5531 25.6827 13.8442L24.3983 15.0277Z" fill="#515151"/>
</svg>
