<svg width="12" height="18" viewBox="0 0 16 22" fill="none" xmlns="http://www.w3.org/2000/svg">
<path d="M13.2704 10.9226C13.1383 10.8169 12.9797 10.7288 12.8388 10.6319C12.7419 10.5174 12.6186 10.4381 12.4688 10.3852C11.5263 9.84788 10.4604 9.53076 9.40334 9.53076C9.18311 9.53076 8.98051 9.61885 8.82195 9.7686L7.74727 10.8521L6.66378 9.77741C6.51403 9.61885 6.30262 9.53957 6.0824 9.53957C5.01653 9.53957 3.93304 9.8655 2.99049 10.4116C2.85836 10.4557 2.75265 10.535 2.66456 10.6319C2.51481 10.7288 2.35625 10.8169 2.21531 10.9226C1.1142 11.7858 0.268555 13.0455 0.268555 14.5166V17.0095C0.268555 19.7578 2.506 21.9865 5.25437 21.9865H10.2402C12.9885 21.9865 15.226 19.7578 15.226 17.0095V14.5166C15.2172 13.0455 14.3715 11.7858 13.2704 10.9226ZM9.6676 11.2837C10.108 11.319 10.5749 11.407 11.0242 11.5744L10.0728 13.1688L8.92766 12.0237L9.6676 11.2837ZM6.57569 12.0237L5.43054 13.1688L4.47919 11.5744C4.92844 11.4159 5.39531 11.319 5.83575 11.2837L6.57569 12.0237ZM13.5611 17.0095C13.5611 18.8593 12.09 20.3216 10.2402 20.3216H5.25437C3.3957 20.3216 1.93343 18.8593 1.93343 17.0095V14.5166C1.93343 13.759 2.36506 13.0279 3.05215 12.4201L4.54966 14.9394C4.82273 15.4063 5.46578 15.4855 5.85337 15.1068L7.74727 13.1952L9.64998 15.098C10.0376 15.4767 10.6718 15.3975 10.9537 14.9306L12.4512 12.4113C13.1383 13.0191 13.5699 13.7502 13.5699 14.5078V17.0095H13.5611Z" fill="#D2D2D2"/>
<path d="M7.74765 7.87469C9.80011 7.87469 11.4914 6.1922 11.4914 4.13974C11.4914 2.08728 9.80892 0.404785 7.74765 0.404785C5.69519 0.404785 4.0127 2.08728 4.0127 4.13974C4.0127 6.1922 5.68638 7.87469 7.74765 7.87469ZM7.74765 2.06085C8.90161 2.06085 9.82654 2.98578 9.82654 4.13974C9.82654 5.2937 8.90161 6.21863 7.74765 6.21863C6.59369 6.21863 5.67757 5.2937 5.67757 4.13974C5.67757 2.98578 6.58488 2.06085 7.74765 2.06085Z" fill="#D2D2D2"/>
<path d="M11.0677 16.1726H10.2397C9.12975 16.1726 9.12975 17.8375 10.2397 17.8375H11.0677C12.1688 17.8375 12.1688 16.1726 11.0677 16.1726Z" fill="#D2D2D2"/>
</svg>
