<svg width="16" height="16" viewBox="0 0 20 20" fill="none" xmlns="http://www.w3.org/2000/svg">
<path fill-rule="evenodd" clip-rule="evenodd" d="M1.33571 9.12169L6.84286 12.9359L4.50714 15.2787C4.44342 15.3397 4.39249 15.4128 4.35733 15.4937C4.32217 15.5747 4.30348 15.6618 4.30236 15.75C4.30124 15.8382 4.3177 15.9258 4.35079 16.0076C4.38388 16.0894 4.43294 16.1637 4.49509 16.2264C4.55724 16.289 4.63125 16.3386 4.71278 16.3723C4.79432 16.406 4.88176 16.4232 4.96999 16.4227C5.05822 16.4223 5.14548 16.4042 5.22667 16.3697C5.30786 16.3351 5.38135 16.2848 5.44286 16.2215L7.95714 13.7073L9.62143 14.8644C9.73261 14.9415 9.86469 14.9828 10 14.9828C10.1353 14.9828 10.2674 14.9415 10.3786 14.8644L12.0429 13.7073L14.55 16.2215C14.6119 16.2834 14.6854 16.3325 14.7663 16.366C14.8472 16.3995 14.9339 16.4168 15.0214 16.4168C15.109 16.4168 15.1957 16.3995 15.2766 16.366C15.3575 16.3325 15.4309 16.2834 15.4929 16.2215C15.5548 16.1596 15.6039 16.0861 15.6374 16.0052C15.6709 15.9243 15.6881 15.8377 15.6881 15.7501C15.6881 15.6626 15.6709 15.5759 15.6374 15.495C15.6039 15.4141 15.5548 15.3406 15.4929 15.2787L13.1571 12.9359L18.6643 9.12169V16.4644C18.6662 16.7541 18.6106 17.0414 18.5008 17.3096C18.391 17.5777 18.2291 17.8215 18.0246 18.0267C17.82 18.2319 17.5768 18.3946 17.309 18.5052C17.0412 18.6159 16.7541 18.6724 16.4643 18.6715H3.57143C3.28165 18.6724 2.99456 18.6159 2.72675 18.5052C2.45894 18.3946 2.21572 18.2319 2.01114 18.0267C1.80657 17.8215 1.64471 17.5777 1.5349 17.3096C1.4251 17.0414 1.36954 16.7541 1.37143 16.4644L1.33571 9.12169ZM6.42857 7.18603C6.26336 7.20313 6.11034 7.28087 5.99911 7.40422C5.88787 7.52757 5.8263 7.68777 5.8263 7.85387C5.8263 8.01996 5.88787 8.18016 5.99911 8.30351C6.11034 8.42686 6.26336 8.5046 6.42857 8.52171H13.5714C13.6649 8.53139 13.7594 8.52133 13.8488 8.49218C13.9382 8.46303 14.0204 8.41543 14.0902 8.35248C14.1601 8.28952 14.2159 8.21261 14.2541 8.12672C14.2923 8.04083 14.312 7.94787 14.312 7.85387C14.312 7.75986 14.2923 7.6669 14.2541 7.58101C14.2159 7.49512 14.1601 7.41821 14.0902 7.35525C14.0204 7.2923 13.9382 7.24471 13.8488 7.21555C13.7594 7.1864 13.6649 7.17634 13.5714 7.18603H6.42857ZM16.4286 6.87889L18.1143 7.89315L16.4286 9.06455V6.87889ZM3.57143 6.87889V9.0217L1.9 7.89315L3.57143 6.87889ZM6.34286 3.57183C6.16289 3.58319 5.99481 3.66558 5.87559 3.80087C5.75637 3.93617 5.69578 4.11327 5.70714 4.29324C5.71851 4.4732 5.8009 4.64128 5.9362 4.7605C6.07149 4.87971 6.2486 4.9403 6.42857 4.92894H10C10.18 4.92894 10.3526 4.85745 10.4798 4.73019C10.6071 4.60294 10.6786 4.43035 10.6786 4.25038C10.6786 4.07042 10.6071 3.89782 10.4798 3.77057C10.3526 3.64332 10.18 3.57183 10 3.57183H6.34286ZM12.8143 2.49328L14.3214 4.2861H12.8143V2.49328ZM5.71429 1.33617H11.5071V5.00036C11.5071 5.17843 11.5779 5.34921 11.7038 5.47512C11.8297 5.60104 12.0005 5.67178 12.1786 5.67178H15.1V10.0002L10 13.5002L4.92143 10.0002V2.14329C4.92092 2.04207 4.94091 1.94178 4.98019 1.84849C5.01948 1.7552 5.07724 1.67082 5.15 1.60045C5.21798 1.51663 5.30407 1.44931 5.4018 1.40353C5.49954 1.35776 5.60637 1.33473 5.71429 1.33617V1.33617ZM12.1429 0.000484833H5.71429C5.14596 0.000484833 4.60092 0.226244 4.19906 0.628098C3.79719 1.02995 3.57143 1.57498 3.57143 2.14329V5.3575L0.364286 7.28602C0.258346 7.34041 0.168777 7.42199 0.104762 7.5224C0.0407479 7.62281 0.00459132 7.73844 0 7.85744V16.4644C0.00941046 17.4053 0.389835 18.3046 1.05859 18.9666C1.72735 19.6287 2.63038 20 3.57143 20H16.5C17.4286 19.9815 18.3135 19.6019 18.9669 18.9418C19.6203 18.2818 19.9909 17.3931 20 16.4644V7.85744C19.9993 7.7293 19.9619 7.60405 19.8923 7.49647C19.8227 7.38889 19.7237 7.30347 19.6071 7.25031L16.4286 5.32178V5.17179C16.4561 5.0639 16.4554 4.95075 16.4267 4.84319C16.3979 4.73563 16.342 4.63726 16.2643 4.55752L12.6929 0.271907C12.6311 0.184428 12.5484 0.113778 12.4523 0.0663772C12.3563 0.0189761 12.2499 -0.00367402 12.1429 0.000484833Z" fill="#D2D2D2"/>
</svg>
