<svg width="40" height="42" viewBox="0 0 40 42" fill="none" xmlns="http://www.w3.org/2000/svg">
<path d="M4.74173 8.9901L9.87924 4.25613C10.0606 4.08794 10.2736 3.95752 10.5057 3.87243C10.7378 3.78733 10.9845 3.74927 11.2315 3.76044C11.4784 3.77161 11.7207 3.83179 11.9442 3.93749C12.1677 4.0432 12.3681 4.19232 12.5336 4.37619L16.0785 8.30401C15.9072 8.52699 15.3764 9.04155 14.6914 9.89915L12.585 12.6606C12.5295 12.7285 12.4835 12.8035 12.448 12.8836C11.8632 13.9162 11.4989 15.0592 11.378 16.2402C11.2571 17.4212 11.3824 18.6145 11.7459 19.7444C12.5792 22.0264 13.9001 24.0986 15.6161 25.8163C17.196 27.6722 19.199 29.1195 21.4558 30.0357C22.5191 30.457 23.6676 30.6177 24.8055 30.5043C25.9435 30.3909 27.0379 30.0068 27.9975 29.3839L30.9088 27.48C31.8164 26.8797 32.3815 26.3823 32.6213 26.2279L36.1661 30.0871C36.3373 30.2666 36.4707 30.4787 36.5584 30.7107C36.6461 30.9428 36.6864 31.1902 36.6768 31.4382C36.6672 31.6862 36.6079 31.9297 36.5026 32.1543C36.3972 32.3789 36.2479 32.58 36.0634 32.7457L30.9259 37.4968C29.4703 38.8175 26.4734 38.9547 23.1683 37.9599C20.0469 37.0305 17.1931 35.3661 14.8455 33.1059L7.75573 25.4732C5.70434 22.9388 4.28387 19.9523 3.61148 16.76C2.90935 13.381 3.2861 10.3966 4.74173 8.9901ZM2.54973 6.69172C-0.258779 9.26453 -0.378653 13.5525 0.443348 17.4289C1.19356 21.2213 2.89029 24.7618 5.37535 27.7201L12.4137 35.4043C15.1315 38.126 18.4968 40.1094 22.1921 41.1673C26.0281 42.3337 30.2409 42.5567 33.0494 39.9667L38.1869 35.2327C39.1807 34.3107 39.7707 33.0328 39.8284 31.6772C39.8861 30.3216 39.4069 28.998 38.4951 27.9946L35.0188 24.1354C34.5744 23.5979 33.977 23.209 33.3063 23.0205C32.6432 22.8915 31.9561 22.9881 31.354 23.2949C30.5856 23.7451 29.8579 24.2616 29.1791 24.8386L26.285 26.7596C25.7545 27.1209 25.1392 27.3377 24.4997 27.3888C23.8602 27.4399 23.2184 27.3236 22.6374 27.0512C20.8656 26.2745 19.2955 25.1009 18.0479 23.6208C16.668 22.2298 15.5946 20.5645 14.8969 18.7325C14.6384 18.0271 14.5411 17.2726 14.6123 16.5246C14.6834 15.7765 14.9211 15.054 15.3079 14.4101L17.3457 11.8545C17.9723 11.2169 18.5451 10.5285 19.0582 9.79624C19.4112 9.22179 19.562 8.54548 19.4864 7.87521C19.3665 7.17298 19.0313 6.52555 18.5274 6.02279L14.914 2.24934C13.9934 1.25398 12.7175 0.663086 11.3641 0.605265C10.0106 0.547444 8.68913 1.02737 7.68723 1.9406L2.54973 6.69172Z" fill="#515151"/>
</svg>
